<svg xmlns="http://www.w3.org/2000/svg" xmlns:xlink="http://www.w3.org/1999/xlink" width="50" height="50" viewBox="0 0 50 50">
  <defs>
    <filter id="Контур_1" x="1" y="5" width="48" height="48" filterUnits="userSpaceOnUse">
      <feOffset dy="3" input="SourceAlpha"/>
      <feGaussianBlur stdDeviation="1" result="blur"/>
      <feFlood flood-opacity="0.161"/>
      <feComposite operator="in" in2="blur"/>
      <feComposite in="SourceGraphic"/>
    </filter>
    <clipPath id="clip-handle">
      <rect width="50" height="50"/>
    </clipPath>
  </defs>
  <g id="handle" clip-path="url(#clip-handle)">
    <rect width="50" height="50" fill="#343435"/>
    <g id="Сгруппировать_1" data-name="Сгруппировать 1" transform="translate(-409 -511.887)">
      <g transform="matrix(1, 0, 0, 1, 409, 511.89)" filter="url(#Контур_1)">
        <path id="Контур_1-2" data-name="Контур 1" d="M21,0A21,21,0,1,1,0,21,21,21,0,0,1,21,0Z" transform="translate(4 5)" fill="#343435"/>
      </g>
      <path id="free-icon-font-caret-down-3916943" d="M6.305,9h9.957a.891.891,0,0,1,.63,1.521L11.914,15.5a.891.891,0,0,1-1.26,0L5.675,10.521A.891.891,0,0,1,6.305,9Z" transform="translate(422.214 533.845)" fill="#3255ff"/>
      <path id="free-icon-font-caret-up-3916936" d="M6.305,14.761h9.957a.891.891,0,0,0,.63-1.521L11.914,8.261a.891.891,0,0,0-1.26,0L5.675,13.239a.891.891,0,0,0,.63,1.521Z" transform="translate(422.66 520.586)" fill="#3255ff"/>
    </g>
  </g>
</svg>
